# xmcd CD database file generated by Grip 3.3.1
# 
# Track frame offsets:
#       150
#       21213
#       37177
#       60958
#       77074
#       98438
#       114216
#       144733
#       167886
#       201935
#       224132
#       243787
#       272162
#       305106
# 
# Disc length: 4371 seconds
# 
# Revision: 1
# Processed by: cddbd v1.5.2PL0 Copyright (c) Steve Scherf et al.
# Submitted via: Grip 3.3.1
# 
DISCID=c711110e
DTITLE=Steven Halpern - Comfort Zone
DYEAR=2005
DGENRE=New Age
TTITLE0=Comfort Zone (Part I)
TTITLE1=You Deserve Love
TTITLE2=Eternally
TTITLE3=Moment's Pause
TTITLE4=Waterfall (Part I)
TTITLE5=Comfort Zone (Part II)
TTITLE6=Brahm's Lullaby
TTITLE7=Of The Spirit
TTITLE8=Light As A Feather
TTITLE9=In The Flow
TTITLE10=Waterfall (Part II)
TTITLE11=Dawn
TTITLE12=Greensleeves
TTITLE13=A Piece Of Peace
EXTD=YEAR: 2005
EXTT0=
EXTT1=
EXTT2=
EXTT3=
EXTT4=
EXTT5=
EXTT6=
EXTT7=
EXTT8=
EXTT9=
EXTT10=
EXTT11=
EXTT12=
EXTT13=
PLAYORDER=
